HIERARCHY
ROOT hip
{
	OFFSET 0.000000 0.000000 0.000000 
	CHANNELS 6 Xposition Yposition Zposition Xrotation Zrotation Yrotation
	JOINT abdomen
	{
		OFFSET 0.000000 3.402643 0.000000 
		CHANNELS 3 Xrotation Zrotation Yrotation
		JOINT chest
		{
			OFFSET 0.000000 8.438565 -0.680529 
			CHANNELS 3 Xrotation Zrotation Yrotation
			JOINT neck
			{
				OFFSET 0.000000 10.207942 -0.272212 
				CHANNELS 3 Xrotation Zrotation Yrotation
				JOINT head
				{
					OFFSET 0.000000 3.130431 0.000000 
					CHANNELS 3 Xrotation Zrotation Yrotation
					End Site
					{
						OFFSET 0.000000 3.130435 0.000000 
					}
				}
			}
			JOINT lCollar
			{
				OFFSET 3.470700 6.669187 -0.816635 
				CHANNELS 3 Yrotation Zrotation Xrotation
				JOINT lShldr
				{
					OFFSET 3.198488 0.000000 0.000000 
					CHANNELS 3 Zrotation Yrotation Xrotation
					JOINT lForeArm
					{
						OFFSET 10.139888 0.000000 0.000000 
						CHANNELS 3 Yrotation Zrotation Xrotation
						JOINT lHand
						{
							OFFSET 8.370511 0.000000 0.000000 
							CHANNELS 3 Zrotation Yrotation Xrotation
							End Site
							{
								OFFSET 4.083176 0.000000 0.000000 
							}
						}
					}
				}
			}
			JOINT rCollar
			{
				OFFSET -3.470700 6.669187 -0.816635 
				CHANNELS 3 Yrotation Zrotation Xrotation
				JOINT rShldr
				{
					OFFSET -3.198488 0.000000 0.000000 
					CHANNELS 3 Zrotation Yrotation Xrotation
					JOINT rForeArm
					{
						OFFSET -10.139888 0.000000 0.000000 
						CHANNELS 3 Yrotation Zrotation Xrotation
						JOINT rHand
						{
							OFFSET -8.370511 0.000000 0.000000 
							CHANNELS 3 Zrotation Yrotation Xrotation
							End Site
							{
								OFFSET -4.083176 0.000000 0.000000 
							}
						}
					}
				}
			}
		}
	}
	JOINT lThigh
	{
		OFFSET 5.308129 -1.633274 1.361059 
		CHANNELS 3 Xrotation Zrotation Yrotation
		JOINT lShin
		{
			OFFSET -2.041588 -20.007561 0.000000 
			CHANNELS 3 Xrotation Zrotation Yrotation
			JOINT lFoot
			{
				OFFSET 0.000000 -19.190928 -1.224953 
				CHANNELS 3 Xrotation Yrotation Zrotation
				End Site
				{
					OFFSET 0.000000 -2.449906 4.627600 
				}
			}
		}
	}
	JOINT rThigh
	{
		OFFSET -5.308129 -1.633274 1.361059 
		CHANNELS 3 Xrotation Zrotation Yrotation
		JOINT rShin
		{
			OFFSET 2.041588 -20.007561 0.000000 
			CHANNELS 3 Xrotation Zrotation Yrotation
			JOINT rFoot
			{
				OFFSET 0.000000 -19.190928 -1.224953 
				CHANNELS 3 Xrotation Yrotation Zrotation
				End Site
				{
					OFFSET 0.000000 -2.449906 4.627600 
				}
			}
		}
	}
}
MOTION
Frames: 16
Frame Time: 0.016667
-6.609516 -1.124120 -1.941128 -86.972656 -0.009766 -0.009766 1.312950 0.244081 -1.269520 0.000000 0.000000 0.000000 -16.337891 -0.009766 0.000000 -6.171875 -0.009766 0.000000 1.992188 -2.001953 0.000341 -61.722706 31.129585 10.884360 -7.253095 0.005660 19.202351 21.474365 -51.247604 18.709566 -2.001953 1.992188 0.000000 33.012012 -24.565886 60.577084 5.607481 0.022821 19.181883 13.467645 53.471817 76.828369 0.916072 6.762502 21.990646 2.890687 -1.869284 -0.768032 15.854095 21.662537 -15.426834 1.911325 -11.079701 -24.231190 1.734226 1.857533 0.656319 29.485846 -36.868622 25.201656 
-6.609516 -1.114453 -1.941128 -86.972656 -0.009766 -0.009766 1.312950 0.244081 -1.269520 0.000000 0.000000 0.000000 -16.367188 -0.009766 0.000000 -6.730962 0.292959 -0.478509 1.992188 -2.001953 0.000341 -61.976223 30.207584 12.043642 -6.709686 -0.008378 19.193708 21.474365 -51.247604 18.709566 -2.001953 1.992188 0.000000 33.144398 -24.706640 60.574230 5.579826 0.013200 19.182827 13.095271 53.564312 76.817200 0.670744 6.846915 21.987234 3.575751 -1.870675 -0.814931 15.436321 21.701921 -15.409611 1.676270 -11.176041 -24.102119 2.232711 1.849278 0.702821 29.368458 -36.480843 25.170311 
-6.609516 -1.104786 -1.941128 -86.972656 -0.009766 -0.009766 1.312950 0.244081 -1.269520 0.000000 0.000000 0.000000 -16.406250 -0.009766 0.000000 -7.304709 0.585856 -0.957081 1.992188 -2.001953 0.000341 -62.249290 29.290205 13.196824 -6.166221 -0.023808 19.193144 21.474365 -51.247604 18.709566 -2.001953 1.992188 0.000000 33.282093 -24.855980 60.563000 5.548961 0.012801 19.183765 12.709580 53.665310 76.813828 0.426909 6.926165 21.963348 4.259084 -1.861495 -0.881137 14.999064 21.730686 -15.402077 1.453079 -11.275076 -24.002768 2.729688 1.848875 0.739492 29.245504 -36.110928 25.133570 
-6.597080 -1.027427 -1.928691 -86.972656 -0.009766 -0.009766 1.312950 0.244081 -1.269520 0.000000 0.000000 0.000000 -16.445311 -0.009766 0.000000 -8.726274 1.083876 -0.810587 1.992188 -2.001953 0.000341 -62.928020 28.007664 13.350857 -5.474393 -0.048896 19.185640 21.474365 -51.247604 18.709566 -2.001953 1.992188 0.000000 33.686337 -24.095551 60.351559 5.462378 0.023104 19.176521 12.300500 53.773434 76.802299 0.174049 7.015640 21.959484 5.009025 -1.851140 -0.911508 14.527019 21.747988 -15.374134 1.218719 -11.373030 -23.873072 3.227365 1.839220 0.776085 29.099472 -35.738525 25.104321 
-6.584643 -0.950075 -1.916255 -86.972656 -0.009766 -0.009766 1.312950 0.244081 -1.269520 0.000000 0.000000 0.000000 -16.474609 -0.009766 0.000000 -10.155329 1.581922 -0.673841 1.992188 -2.001953 0.000341 -63.595871 26.713287 13.508224 -4.773266 -0.072019 19.185551 21.474365 -51.247604 18.709566 -2.001953 1.992188 0.000000 34.099812 -23.343718 60.144016 5.388218 0.028330 19.178659 11.891983 53.881985 76.791023 -0.078734 7.099182 21.945030 5.740552 -1.851295 -0.970657 14.071220 21.769873 -15.375121 0.982730 -11.447871 -23.741129 3.734065 1.838964 0.803476 28.952209 -35.366241 25.077520 
-6.584643 -0.872723 -1.916255 -86.972656 -0.009766 -0.009766 2.025888 0.439193 -1.972673 0.000000 0.000000 0.000000 -16.513672 -0.009766 0.000000 -11.736335 2.148366 -0.468787 1.992188 -2.001953 0.000341 -64.301697 25.337362 13.592133 -3.988679 -0.097377 19.184650 21.474365 -51.247604 18.709566 -2.001953 1.992188 0.000000 34.544079 -22.476116 59.953442 5.273972 0.029947 19.181955 11.453879 53.986813 76.779243 -0.342492 7.194583 21.930950 6.498787 -1.833849 -1.030679 13.560434 21.785900 -15.361785 0.739537 -11.546369 -23.620119 4.252516 1.829844 0.841035 28.815134 -34.976116 25.064577 
-6.584642 -0.795376 -1.916254 -86.972656 -0.009766 -0.009766 2.743803 0.634074 -2.675941 0.000000 0.000000 0.000000 -16.562500 -0.009766 0.000000 -13.323976 2.714810 -0.283348 1.992188 -2.001953 0.000341 -65.000832 23.965189 13.700148 -3.194806 -0.119803 19.180634 21.474365 -51.247604 18.709566 -2.001953 1.992188 0.000000 34.991226 -21.607729 59.771278 5.168949 0.033886 19.175163 10.999364 54.103477 76.754211 -0.606409 7.282324 21.925789 7.248041 -1.823639 -1.080538 13.100045 21.792059 -15.357458 0.494393 -11.632101 -23.487957 4.777903 1.829329 0.888939 28.673496 -34.616169 25.052067 
-6.559769 -0.718018 -1.891381 -86.972656 -0.009766 -0.009766 3.493396 0.867612 -3.398787 0.000000 0.000000 0.000000 -16.601564 -0.009766 0.000000 -14.983302 3.320311 -0.048746 1.992188 -2.001953 0.000341 -65.694382 22.533186 13.758332 -2.376025 -0.154593 19.173542 21.474365 -51.247604 18.709566 -2.001953 1.992188 0.000000 35.434742 -20.670231 59.610645 5.042271 0.041526 19.178614 10.562468 54.209167 76.742989 -0.879232 7.372190 21.910450 8.009612 -1.823879 -1.141162 12.603158 21.842329 -15.346105 0.261679 -11.732876 -23.366816 5.299749 1.821460 0.897210 28.541048 -34.200836 25.002542 
-6.534898 -0.640662 -1.866510 -86.972656 -0.009766 -0.009766 4.235497 1.120129 -4.131597 0.000000 0.000000 0.000000 -16.650391 -0.009766 0.000000 -16.648735 3.935531 0.166965 1.992188 -2.001953 0.000341 -66.381615 21.099634 13.833600 -1.551168 -0.177607 19.172764 21.474365 -51.247604 18.709566 -2.001953 1.992188 0.000000 35.869278 -19.734091 59.439415 4.909584 0.035891 19.172527 10.112833 54.317047 76.718491 -1.153015 7.464821 21.904598 8.769377 -1.812454 -1.220292 12.118345 21.870501 -15.299567 0.026970 -11.820494 -23.244398 5.812900 1.820188 0.934715 28.376371 -33.829762 24.972706 
-6.522468 -0.572983 -1.854080 -86.972656 -0.009766 -0.009766 4.987939 1.401166 -4.874452 0.000000 0.000000 0.000000 -16.689453 -0.009766 0.000000 -18.269424 4.589737 0.392498 1.992188 -2.001953 0.000341 -67.034065 19.646967 13.907505 -0.744742 -0.207205 19.168253 21.474365 -51.247604 18.709566 -2.001953 1.992188 0.000000 36.259636 -18.767952 59.312256 4.792122 0.046742 19.175529 9.669828 54.436138 76.694473 -1.416676 7.545336 21.878141 9.547377 -1.803983 -1.242296 11.620147 21.912970 -15.289972 -0.207862 -11.905538 -23.111546 6.333949 1.811479 0.981878 28.257153 -33.460072 24.968435 
-6.510038 -0.505298 -1.841651 -86.972656 -0.009766 -0.009766 5.740644 1.700753 -5.627441 0.000000 0.000000 0.000000 -16.738281 -0.009766 0.000000 -19.906366 5.234092 0.598564 1.992188 -2.001953 0.000341 -67.680702 18.202209 14.001831 0.070905 -0.233822 19.160351 21.474365 -51.247604 18.709566 -2.001953 1.992188 0.000000 36.648758 -17.792894 59.188911 4.674656 0.057586 19.178467 9.221169 54.544685 76.670486 -1.699678 7.623295 21.860733 10.304252 -1.785236 -1.281914 11.121901 21.916111 -15.269706 -0.451633 -12.005216 -22.979006 6.859670 1.811130 1.019967 28.109238 -33.090759 24.955536 
-6.510038 -0.418275 -1.841651 -86.972656 -0.009766 -0.009766 6.483233 2.028498 -6.351612 0.000000 0.000000 0.000000 -16.777344 -0.009766 0.000000 -21.411552 5.888094 0.805572 1.992188 -2.001953 0.000341 -68.269104 16.784613 14.131938 0.803207 -0.258397 19.168779 21.474365 -51.247604 18.709566 -2.001953 1.992188 0.000000 36.970585 -16.833179 59.069649 4.572835 0.052405 19.171329 8.796849 54.646812 76.647148 -1.953285 7.703771 21.853260 11.066796 -1.775809 -1.341676 10.639521 21.936701 -15.258683 -0.693654 -12.090322 -22.854898 7.372792 1.810637 1.057160 27.973244 -32.707005 24.919142 
-6.510035 -0.331253 -1.841646 -86.972656 -0.009766 -0.009766 7.216306 2.364683 -7.076348 0.000000 0.000000 0.000000 -16.816406 -0.009766 0.000000 -22.925276 6.532250 0.983554 1.992188 -2.001953 0.000341 -68.857521 15.357713 14.267677 1.544714 -0.279559 19.174292 21.474365 -51.247604 18.709566 -2.001953 1.992188 0.000000 37.290073 -15.871181 58.963829 4.480224 0.051221 19.173628 8.363057 54.747906 76.631805 -2.216905 7.788431 21.825775 11.809524 -1.756504 -1.399457 10.159523 21.949270 -15.228617 -0.928826 -12.183687 -22.731432 7.877861 1.792449 1.093288 27.815435 -32.321674 24.888607 
-6.472725 -0.253897 -1.804337 -86.972656 -0.009766 -0.009766 7.921361 2.709292 -7.772020 0.000000 0.000000 0.000000 -16.855469 -0.009766 0.000000 -24.223171 7.147033 1.142235 1.992188 -2.001953 0.000341 -69.369453 14.002026 14.480108 2.140983 -0.299709 19.168766 21.474365 -51.247604 18.709566 -2.001953 1.992188 0.000000 37.532875 -14.948824 58.859196 4.427704 0.053637 19.174881 7.955795 54.856148 76.595917 -2.471051 7.879828 21.818228 12.509834 -1.746741 -1.465470 9.718366 21.985693 -15.228185 -1.173095 -12.272733 -22.597099 8.349468 1.782748 1.117998 27.704638 -31.959074 24.862988 
-6.435420 -0.176542 -1.767031 -86.972656 -0.009766 -0.009766 8.626842 3.062087 -8.459112 0.000000 0.000000 0.000000 -16.894531 -0.009766 0.000000 -25.518957 7.761724 1.291314 1.992188 -2.001953 0.000341 -69.884438 12.647187 14.698678 2.737271 -0.319471 19.171118 21.474365 -51.247604 18.709566 -2.001953 1.992188 0.000000 37.774944 -14.031799 58.754135 4.384404 0.059258 19.175879 7.566558 54.953793 76.581757 -2.714991 7.950812 21.808987 13.211854 -1.727197 -1.491203 9.263255 22.002226 -15.208451 -1.417908 -12.346817 -22.481041 8.846941 1.782981 1.164239 27.544615 -31.569275 24.825813 
-6.422984 -0.108860 -1.754595 -86.972656 -0.009766 -0.009766 9.280013 3.404090 -9.088015 0.000000 0.000000 0.000000 -16.923828 -0.009766 0.000000 -26.524792 8.298297 1.411459 1.992188 -2.001953 0.000341 -70.315987 11.411346 14.992141 3.145030 -0.332814 19.164984 21.474365 -51.247604 18.709566 -2.001953 1.992188 0.000000 37.887547 -13.198371 58.640560 4.396833 0.053241 19.175625 7.197599 55.047554 76.562744 -2.929662 8.019296 21.801289 13.839452 -1.741033 -1.536171 8.817574 22.028419 -15.166327 -1.650901 -12.440764 -22.346863 9.323874 1.782872 1.199637 27.437931 -31.171770 24.809219 
